<?xml version="1.0" ?>
<svg xmlns="http://www.w3.org/2000/svg" id="Layer_2" viewBox="0 0 32 32">
  <style>
    .cls-1 { fill: none; }
    .cls-2 { fill:#002559; stroke-width: 0px; }
  </style>
  <g id="icons">
    <g id="Organization">
      <g id="File">
        <polygon class="cls-2" points="30 18 30 16 24 16 24 26 26 26 26 22 29 22 29 20 26 20 26 18 30 18" />
        <path class="cls-2" d="m19,26h-4v-10h4c1.65,0,3,1.35,3,3v4c0,1.65-1.35,3-3,3Zm-2-2h2c.55,0,1-.45,1-1v-4c0-.55-.45-1-1-1h-2v6Z" />
        <path class="cls-2" d="m11,16h-5v10h2v-3h3c1.1,0,2-.9,2-2v-3c0-1.1-.9-2-2-2Zm-3,5v-3h3v3s-3,0-3,0Z" />
        <path class="cls-2" d="m22,14v-4c0-.3-.1-.5-.3-.7l-7-7c-.2-.2-.4-.3-.7-.3H4c-1.1,0-2,.9-2,2v24c0,1.1.9,2,2,2h16s0-2,0-2H4V4h8v6c0,1.1.9,2,2,2h6v2h2Zm-8-4v-5.6l5.6,5.6h-5.6Z" />
        <rect id="_Transparent_Rectangle_" class="cls-1" width="32" height="32" />
      </g>
    </g>
  </g>
</svg>
